<?xml version="1.0" encoding="UTF-8"?>
<svg id="Layer_2" data-name="Layer 2" xmlns="http://www.w3.org/2000/svg" viewBox="0 0 641.3 130.35" width="641.3" height="130.35">
  <g id="Layer_1-2" data-name="Layer 1">
    <g fill="#FFFFFF">
      <path d="M0,1.4h28.62c22.46,0,36.4,14.9,36.4,37.37s-13.93,38.23-36.4,38.23H0V1.4ZM27.32,64.58c15.12,0,24.19-10.04,24.19-25.17s-9.07-25.6-24.19-25.6h-13.82v50.76h13.82Z"/>
      <path d="M107.46,0c23.54,0,38.23,15.66,38.23,39.2s-14.69,39.31-38.23,39.31-38.12-15.66-38.12-39.31S83.91,0,107.46,0ZM107.46,66.1c15.45,0,24.73-10.37,24.73-26.89s-9.29-26.78-24.73-26.78-24.62,10.37-24.62,26.78,9.07,26.89,24.62,26.89Z"/>
      <path d="M188.13,0c13.39,0,23.65,5.08,30.56,13.72l-11.02,7.56c-4.54-5.62-11.02-8.86-19.55-8.86-15.55,0-24.62,10.37-24.62,26.78s9.07,26.78,24.62,26.78c8.53,0,15.01-3.24,19.55-8.86l11.02,7.56c-6.91,8.64-17.17,13.72-30.56,13.72-23.54,0-38.12-15.66-38.12-39.21S164.59,0,188.13,0Z"/>
      <path d="M223.56,1.4h13.5v34.02L267.08,1.4h16.85l-30.03,34.02,30.35,41.58h-15.77l-23.22-31.86-8.21,9.29v22.57h-13.5V1.4Z"/>
      <path d="M288.03,1.4h51.41v12.42h-37.91v17.17h31.21v12.42h-31.21v21.28h37.91v12.42l-51.41-.11V1.4Z"/>
      <path d="M346.46,1.4h35.1c15.98,0,26.68,10.69,26.68,27.22,0,11.77-5.72,20.74-15.12,24.62l15.55,23.76h-15.98l-14.15-21.6h-18.58v21.6h-13.5V1.4ZM380.26,42.98c8.75,0,14.47-5.72,14.47-14.69s-5.72-14.47-14.47-14.47h-20.3v29.16h20.3Z"/>
      <path d="M478.65,0c13.39,0,23.65,5.08,30.56,13.72l-11.02,7.56c-4.54-5.62-11.02-8.86-19.55-8.86-15.55,0-24.62,10.37-24.62,26.78s9.07,26.78,24.62,26.78c8.53,0,15.01-3.24,19.55-8.86l11.02,7.56c-6.91,8.64-17.17,13.72-30.56,13.72-23.54,0-38.12-15.66-38.12-39.21S455.1,0,478.65,0Z"/>
      <path d="M535.67,1.4h14.15l25.92,75.6h-14.15l-6.26-19.98h-25.16l-6.26,19.98h-14.15L535.67,1.4ZM551.33,44.6l-8.64-27.43-8.64,27.43h17.28Z"/>
      <path d="M579.52,1.4h34.24c16.53,0,27.54,11.02,27.54,27.54s-11.02,28.08-27.54,28.08h-20.74v19.98h-13.5V1.4ZM627.8,29.38c0-9.5-6.05-15.55-15.23-15.55h-19.55v30.78h19.55c9.18,0,15.23-6.05,15.23-15.23Z"/>
    </g>
    <g fill="#FFFFFF">
      <path d="M123.6,106.83h10.44c5.04,0,8.4,3.36,8.4,8.4s-3.36,8.57-8.4,8.57h-6.33v6.09h-4.12v-23.06ZM138.33,115.36c0-2.9-1.84-4.74-4.65-4.74h-5.96v9.39h5.96c2.8,0,4.65-1.84,4.65-4.65Z"/>
      <path d="M160.41,106.83h4.12v9.52h10.08v-9.52h4.12v23.06h-4.12v-9.75h-10.08v9.75h-4.12v-23.06Z"/>
      <path d="M208.47,106.4c7.18,0,11.66,4.78,11.66,11.96s-4.48,11.99-11.66,11.99-11.63-4.78-11.63-11.99,4.45-11.96,11.63-11.96ZM208.47,126.56c4.71,0,7.54-3.16,7.54-8.2s-2.83-8.17-7.54-8.17-7.51,3.16-7.51,8.17,2.77,8.2,7.51,8.2Z"/>
      <path d="M242.84,110.62h-6.89v-3.79h17.92v3.79h-6.92v19.27h-4.12v-19.27Z"/>
      <path d="M281.48,106.4c7.18,0,11.66,4.78,11.66,11.96s-4.48,11.99-11.66,11.99-11.63-4.78-11.63-11.99,4.45-11.96,11.63-11.96ZM281.48,126.56c4.71,0,7.54-3.16,7.54-8.2s-2.83-8.17-7.54-8.17-7.51,3.16-7.51,8.17,2.77,8.2,7.51,8.2Z"/>
      <path d="M322.57,106.4c4.09,0,7.21,1.55,9.32,4.18l-3.36,2.31c-1.38-1.71-3.36-2.7-5.96-2.7-4.74,0-7.51,3.16-7.51,8.17s2.77,8.17,7.51,8.17c1.98,0,3.62-.53,4.84-1.45v-3.95h-4.84v-3.79h8.96v9.22c-1.78,2.24-4.88,3.76-8.96,3.76-7.18,0-11.63-4.78-11.63-11.96s4.45-11.96,11.63-11.96Z"/>
      <path d="M350.18,106.83h10.71c4.88,0,8.14,3.26,8.14,8.3,0,3.59-1.75,6.33-4.61,7.51l4.74,7.25h-4.88l-4.32-6.59h-5.67v6.59h-4.12v-23.06ZM360.49,119.51c2.67,0,4.42-1.75,4.42-4.48s-1.75-4.42-4.42-4.42h-6.19v8.9h6.19Z"/>
      <path d="M394.03,106.83h4.31l7.91,23.06h-4.31l-1.91-6.09h-7.68l-1.91,6.09h-4.32l7.91-23.06ZM398.81,120l-2.63-8.37-2.64,8.37h5.27Z"/>
      <path d="M423.39,106.83h10.44c5.04,0,8.4,3.36,8.4,8.4s-3.36,8.57-8.4,8.57h-6.33v6.09h-4.12v-23.06ZM438.11,115.36c0-2.9-1.85-4.74-4.65-4.74h-5.96v9.39h5.96c2.8,0,4.65-1.84,4.65-4.65Z"/>
      <path d="M460.19,106.83h4.12v9.52h10.08v-9.52h4.12v23.06h-4.12v-9.75h-10.08v9.75h-4.12v-23.06Z"/>
      <path d="M500.28,106.83l5.44,11.56,5.4-11.56h4.31l-7.68,16.14v6.92h-4.12v-6.92l-7.68-16.14h4.31Z"/>
    </g>
  </g>
</svg>