<?xml version="1.0" encoding="UTF-8"?>
<svg id="Layer_1" xmlns="http://www.w3.org/2000/svg" version="1.1" viewBox="0 0 382.31 100">
  <!-- Generator: Adobe Illustrator 30.1.0, SVG Export Plug-In . SVG Version: 2.1.1 Build 136)  -->
  <defs>
    <style>
      .st0 {
        fill: #f6a0fe;
      }

      .st1 {
        fill: #fff;
      }

      .st2 {
        fill: #62d4f9;
      }

      .st3 {
        fill: #e16bfc;
      }

      .st4 {
        fill: #1099e7;
      }

      .st5 {
        fill: #9be0fd;
      }

      .st6 {
        fill: #9119f6;
      }
    </style>
  </defs>
  <g>
    <path id="Layer_11" data-name="Layer_1" class="st4" d="M50,0c-8.58,0-16.66,2.16-23.71,5.97v30.33L76.26,7.45C68.63,2.73,59.64,0,50,0Z"/>
    <path id="Layer_12" data-name="Layer_1" class="st6" d="M6.7,25C2.41,32.43.25,40.51.02,48.52l26.27,15.17V5.98c-7.9,4.25-14.77,10.67-19.58,19.02Z"/>
    <path id="Layer_13" data-name="Layer_1" class="st3" d="M6.7,75c4.29,7.43,10.2,13.34,17.03,17.55l26.27-15.17L.02,48.53c-.27,8.97,1.86,18.13,6.68,26.47Z"/>
    <path id="Layer_14" data-name="Layer_1" class="st0" d="M50,100c8.58,0,16.66-2.16,23.71-5.97v-30.33l-49.98,28.85c7.63,4.72,16.63,7.45,26.26,7.45Z"/>
    <path id="Layer_15" data-name="Layer_1" class="st5" d="M93.3,75c4.29-7.43,6.45-15.51,6.68-23.52l-26.27-15.17v57.71c7.9-4.25,14.77-10.67,19.58-19.02Z"/>
    <path id="Layer_16" data-name="Layer_1" class="st2" d="M93.3,25c-4.29-7.43-10.2-13.34-17.03-17.55l-26.27,15.17,49.97,28.86c.27-8.97-1.86-18.13-6.68-26.47Z"/>
  </g>
  <g>
    <path class="st1" d="M118.24,26.34h8.62v47.32h-8.62V26.34ZM135.19,47.64v-12.68c0-.8-.14-1.34-.41-1.61-.28-.27-.84-.41-1.69-.41h-12.9v-6.6h15.45c2.9,0,4.99.65,6.26,1.95,1.27,1.3,1.91,3.13,1.91,5.48v15.07c0,2.35-.64,4.18-1.91,5.48-1.28,1.3-3.36,1.95-6.26,1.95h-13.72v-6.6h11.18c.85,0,1.41-.15,1.69-.45.27-.3.41-.82.41-1.57Z"/>
    <path class="st1" d="M157.69,34.96v20.48h-8.62v-21.67c0-2.35.65-4.17,1.95-5.48s3.38-1.95,6.22-1.95h5.1v6.6h-2.48c-.85,0-1.42.14-1.72.41-.3.28-.45.81-.45,1.61ZM157.69,52.51v12.52c0,.75.15,1.28.45,1.58s.87.45,1.72.45h2.4v6.6h-5.03c-2.85,0-4.92-.65-6.22-1.95-1.3-1.3-1.95-3.12-1.95-5.47v-13.72h8.62ZM165.94,65.04v-12.15h8.62v13.35c0,2.35-.64,4.17-1.91,5.47-1.28,1.3-3.36,1.95-6.26,1.95h-5.4v-6.6h2.85c.85,0,1.41-.15,1.69-.45.27-.3.41-.83.41-1.58ZM165.94,55.44v-20.48c0-.8-.14-1.34-.41-1.61-.28-.27-.84-.41-1.69-.41h-2.55v-6.6h5.1c2.9,0,4.99.65,6.26,1.95,1.27,1.3,1.91,3.13,1.91,5.48v21.67h-8.62Z"/>
    <path class="st1" d="M196.54,65.04v-10.12c0-.8-.15-1.34-.45-1.61-.3-.27-.85-.41-1.65-.41h-6.08c-2.8,0-4.79-.66-5.96-1.99-1.18-1.32-1.76-3.16-1.76-5.51v-11.62c0-2.35.62-4.17,1.88-5.48,1.25-1.3,3.32-1.95,6.22-1.95h8.25c2.85,0,4.91.65,6.19,1.95,1.28,1.3,1.91,3.13,1.91,5.48v6.6h-8.7v-5.4c0-.8-.14-1.34-.41-1.61-.28-.27-.84-.41-1.69-.41h-2.85c-.85,0-1.42.14-1.72.41-.3.28-.45.81-.45,1.61v9.53c0,.75.15,1.27.45,1.57.3.3.87.45,1.72.45h5.92c2.85,0,4.88.64,6.08,1.91,1.2,1.27,1.8,3.09,1.8,5.44v12.38c0,2.35-.64,4.17-1.91,5.47-1.28,1.3-3.36,1.95-6.26,1.95h-8.1c-2.9,0-4.99-.65-6.26-1.95-1.28-1.3-1.91-3.12-1.91-5.47v-6.53h8.62v5.33c0,.75.15,1.28.45,1.58s.87.45,1.73.45h2.85c.8,0,1.35-.15,1.65-.45.3-.3.45-.83.45-1.58Z"/>
    <path class="st1" d="M211.46,26.34h8.7v47.32h-8.7V26.34ZM233.96,26.34v6.6h-18.6v-6.6h18.6ZM234.57,67.06v6.6h-19.2v-6.6h19.2ZM231.79,46.06v6.67h-15.97v-6.67h15.97Z"/>
    <path class="st1" d="M257.59,26.34h8.85l-9.38,47.32h-11.33l-9.38-47.32h8.92l6.08,38.25,6.22-38.25Z"/>
    <path class="st1" d="M298.61,73.66h-8.7l-7.12-39-6.68,39h-8.62l9.53-47.32h11.62l9.97,47.32ZM291.94,57.31v6.52h-17.85v-6.52h17.85Z"/>
    <path class="st1" d="M311.37,26.34v38.7c0,.75.15,1.28.45,1.58.3.3.85.45,1.65.45h2.4v6.6h-4.95c-2.9,0-4.99-.65-6.26-1.95-1.28-1.3-1.91-3.12-1.91-5.47V26.34h8.62ZM319.62,65.04V26.34h8.62v39.9c0,2.35-.65,4.17-1.95,5.47s-3.38,1.95-6.23,1.95h-5.4v-6.6h2.77c.85,0,1.43-.15,1.73-.45s.45-.83.45-1.58Z"/>
    <path class="st1" d="M335.29,26.34h8.62v47.32h-8.62V26.34ZM338.96,73.66v-6.6h17.55v6.6h-17.55Z"/>
    <path class="st1" d="M382.31,26.34v6.6h-25.2v-6.6h25.2ZM365.36,28.36h8.62v45.3h-8.62V28.36Z"/>
  </g>
</svg>